<?xml version="1.0" encoding="UTF-8"?>
<svg width="24" height="24" version="1.1" viewBox="0 0 24 24" xmlns="http://www.w3.org/2000/svg" xmlns:xlink="http://www.w3.org/1999/xlink">
 <g aria-label="β">
  <path d="m19.469 10.272q.91841 0 1.6428.28458.72438.27164 1.1383.82786.41393.54328.41393 1.3711 0 .93134-.49154 1.4876-.47861.54328-1.3582.68557v.03881q1.0995.12935 1.7204.71144.63383.58209.63383 1.7592 0 1.3582-.8408 2.1085t-2.2507.75025q-1.2547 0-2.0567-.401v3.3761h-1.9274v-10.025q0-1.0478.4398-1.6945.45274-.6597 1.2159-.97015t1.7204-.31045zm-.05174 1.5005q-.37512 0-.69851.14229-.32338.14229-.51741.50448-.18109.34925-.18109 1.009v4.8896q.32338.20697.76318.32338.4398.11642.80199.11642.80199 0 1.19-.38806.401-.401.401-1.0995 0-.80199-.49154-1.1124-.47861-.31045-1.1512-.31045h-.45274v-1.5264h.33632q.68557 0 .99602-.36219.32338-.37512.32338-.97015 0-.60796-.36219-.90547-.36219-.31045-.95721-.31045zm-10.418-8.7727v6h-4l7 7 3.1152-3.1152c.0459-.69896.21938-1.3497.58984-1.8945l.004-.004c.40866-.59552.9901-1.0559 1.664-1.33.40362-.16419.8383-.25557 1.2852-.31445l.3418-.3418h-4v-6zm-4 15v2h10.094v-2z" stroke-width="1px"/>
 </g>
</svg>
