<?xml version="1.0" encoding="UTF-8"?>
<svg width="24" height="24" version="1.1" viewBox="0 0 24 24" xmlns="http://www.w3.org/2000/svg"><path d="m17.777 12.68c-1.2871 0-2.3436.48134-3.0605 1.4199a.32031.32031 0 0 0-.002.0039c-.70516.94021-1.0352 2.2527-1.0352 3.9141 0 1.6971.33382 3.0195 1.0566 3.9395a.32031.32031 0 0 0 .002.002c.7144.89625 1.7179 1.3613 2.9121 1.3613.79739 0 1.4576-.16219 1.9512-.52734.32905-.23765.55103-.5127.78125-.78516.14569.40414.33399.7493.63086.95117.35048.23832.75674.36133 1.1875.36133.2506 0 .48673-.02696.70703-.08203.21037-.05259.37902-.11091.52344-.20117a.32031.32031 0 0 0 .15039-.27148v-1.1504a.32031.32031 0 0 0-.39844-.31055c-.04622.01156-.11983.02945-.22461.05273-.08644.01921-.16528.02734-.23633.02734-.12501 0-.20036-.03409-.28906-.12109-.05709-.06463-.12695-.23999-.12695-.56641v-3.7402c0-.42336.01734-.87183.05273-1.3438.03529-.47054.08212-.91547.14062-1.3379.06987-.41923.15074-.75095.23633-.98633a.32031.32031 0 0 0-.30078-.42969h-1.2422a.32031.32031 0 0 0-.25781.13086c-.14991.20442-.2763.43783-.38086.69922-.03354.08386-.05284.15438-.08203.23438-.27543-.32993-.57763-.62157-.93359-.82422l-.0039-.002c-.49006-.2848-1.082-.41795-1.7578-.41795zm.21484 1.9707c.8077 0 1.2831.26194 1.5898.82422a.32031.32031 0 0 0 .002.0039c.3329.59063.51562 1.4346.51562 2.5391v.10743c0 1.1394-.19663 1.9675-.53906 2.4863a.32031.32031 0 0 0-.002.0039c-.32747.51167-.79718.75195-1.5469.75195-.68732 0-1.1492-.23055-1.502-.72852-.34094-.48132-.55274-1.3703-.55274-2.6562 0-1.1784.18697-2.0373.50977-2.5684.31694-.52142.77714-.76367 1.5254-.76367zm-8.9918-11.651v6h-4l7 7 .91406-.91406c.2014-.61793.47896-1.1868.85742-1.6914l.0039-.0039.0039-.0059c.62529-.81856 1.5133-1.3824 2.5039-1.668l2.7168-2.7168h-4v-6zm-4 15v2h7.6875c-.1161-.62385-.1875-1.2777-.1875-1.9824 0-.006-8e-6-.01154 0-.01758z" fill="#fff"/></svg>
