<?xml version="1.0" encoding="UTF-8"?><svg width="294.4" height="46.8" version="1.1" viewBox="0 0 294.4 46.8" xml:space="preserve" xmlns="http://www.w3.org/2000/svg"><path d="m79.6 6.7-37.8-1.9h46.2v-3.7h-52.2v14c0 .1-1.5-9.1-1.9-11.7h-4.1v13c0 .1-1.8-10.9-1.9-12.3h-27.9c1.9 1.6 12.4 10.6 19.9 14.3 3.7 1.8 8.3 1.9 12.4 2 2.1.1 4.2.2 5.8 1.8 2.3 2.2 2.8 5.7.8 8.3-1.9 2.6-7.3 3.2-7.3 3.2l-4.6 5.4v6.4h10.3l.3-6.3 8.9-6.3c-.9.8-3.1 2.8-6.2 7.7-.7 1.1-1.3 2.3-1.7 3.5 2.2-1.9 6.8-3.2 12.2-3.2 5.3 0 9.9 1.3 12.1 3.2-.4-1.2-1-2.4-1.7-3.5-3.2-4.9-5.3-6.9-6.2-7.7l8.9 6.3.3 6.3h9.6v-6.4l-4.5-5.5s-6.7-.4-8.4-3.2c-5.2-7.8 1.9-20 18.7-23.7zm194 11v-6.3h19.8v-10.3h-30.8v44.5h31.8v-10.3h-20.8v-7.3h18.7v-10.3zm-42.9-3.7c1-1.1 2.3-2 3.8-2.7 1.5-.6 3.1-1 5-1 1.8 0 3.6.3 5.3.9 1.6.6 3 1.4 4.1 2.5l1.3 1.3 8-8.1-1.5-1.3c-2.4-2.1-5.1-3.6-8.1-4.4-2.9-.8-6-1.2-9.2-1.2-3.4 0-6.5.6-9.3 1.7-2.9 1.1-5.4 2.7-7.4 4.8-2.1 2.1-3.7 4.6-4.9 7.5s-1.7 6.1-1.7 9.6c0 3.4.6 6.6 1.8 9.4s2.8 5.3 4.9 7.3 4.6 3.6 7.4 4.7 6 1.7 9.3 1.7c6.5 0 12.5-1.4 17.8-4.3l1-.5v-23.9h-19.3v10.3h8.4v6.7c-.9.4-1.8.7-2.9.9-1.5.3-3.1.5-4.8.5-1.8 0-3.5-.3-5-1s-2.7-1.6-3.8-2.7c-1.1-1.2-1.9-2.6-2.5-4.2s-.9-3.5-.9-5.4c0-1.8.3-3.5.9-5 .5-1.6 1.3-3 2.3-4.1zm-18.5 9.3c1.9-2.3 2.9-5.2 2.9-8.6 0-2.6-.5-4.8-1.5-6.6s-2.4-3.2-4-4.2-3.4-1.7-5.5-2.1c-1.9-.4-4-.6-6-.6h-16v44.5h11v-17.4h2.3l9.4 17.3h13.1l-11.2-18.6c2.2-.8 4.1-2 5.5-3.7zm-19.3-12.3h4.4c.8 0 1.7.1 2.6.2.8.1 1.5.3 2.1.6.5.2.9.6 1.2 1s.4 1 .4 1.8c0 .9-.2 1.6-.5 2.1s-.8.8-1.3 1c-.7.3-1.5.5-2.3.6-1 .1-2 .1-2.9.1h-3.8v-7.4zm-19.6-4.7c-2.1-2.1-4.6-3.6-7.5-4.7-2.7-1-5.8-1.5-9-1.5h-.4c-3.4 0-6.5.6-9.3 1.7-2.9 1.1-5.4 2.7-7.4 4.8-2.1 2.1-3.7 4.6-4.9 7.5s-1.7 6.1-1.7 9.6c0 3.4.6 6.6 1.8 9.4s2.8 5.3 4.9 7.3 4.6 3.6 7.4 4.7 6 1.7 9.3 1.7c3.4 0 6.6-.6 9.4-1.8 2.9-1.1 5.4-2.8 7.5-4.8s3.7-4.5 4.9-7.4c1.2-2.8 1.8-6 1.8-9.4 0-3.5-.6-6.7-1.7-9.6-1.4-2.9-3.1-5.4-5.1-7.5zm-4.7 16.8c0 2-.3 3.8-.9 5.4s-1.4 3-2.5 4.2c-1 1.1-2.3 2.1-3.8 2.7-1.5.7-3.2 1-5 1s-3.5-.3-5-1-2.7-1.6-3.8-2.7c-1.1-1.2-1.9-2.6-2.5-4.2s-.9-3.5-.9-5.4c0-1.8.3-3.5.9-5s1.4-2.9 2.5-4c1-1.1 2.3-2 3.8-2.7 1.5-.6 3.1-1 5-1 1.8 0 3.5.3 5 1 1.5.6 2.8 1.5 3.8 2.7 1.1 1.1 1.9 2.5 2.5 4s.9 3.2.9 5zm-37.6-4.7h-18v-7h19.1v-10.3h-30v44.5h10.9v-16.9h18z" fill="#fff"/></svg>
